<svg xmlns="http://www.w3.org/2000/svg" viewBox="0 0 32 32" fill="none" role="img" aria-label="Quiet Ash">
  <rect width="32" height="32" fill="#E8E4DC"/>
  <g fill="#B82E24">
    <rect x="3" y="3" width="26" height="26" rx="2.6"/>
    <rect x="4.8" y="4.8" width="22.4" height="22.4" rx="1.8" fill="#E8E4DC"/>
    <rect x="6" y="6" width="20" height="20" rx="1.2"/>
    <rect x="15" y="7.5" width="1.3" height="17" fill="#E8E4DC" opacity="0.92"/>
    <rect x="7.5" y="15" width="17" height="1.3" fill="#E8E4DC" opacity="0.92"/>
    <path
      fill="#E8E4DC"
      d="M8.5 8.2h6.2v1.2h-4.4v2.4h4.4v1.1H8.5V8.2zm1.2 5.2h3.6v1.1H9.7v-1.1z"
    />
    <path
      fill="#E8E4DC"
      d="M17.8 18.4h6.4v1.2h-2.4v2.1h2.4v1.1h-6.4v-4.4zm1.3 0h3.5v1.1h-3.5V18.4zm0 2.1h3.5v1.1h-3.5v-1.1z"
    />
    <rect x="18" y="8.8" width="5.5" height="1.1" fill="#E8E4DC" opacity="0.8" rx="0.2"/>
    <rect x="8.8" y="20.2" width="4.8" height="1.1" fill="#E8E4DC" opacity="0.8" rx="0.2"/>
  </g>
</svg>
