<svg xmlns="http://www.w3.org/2000/svg" viewBox="0 0 32 32" fill="none" role="img" aria-label="Quiet Ash">
  <rect width="32" height="32" fill="#E8E4DC"/>
  <g fill="#B82E24">
    <rect x="4" y="4" width="24" height="24" rx="2.4"/>
    <rect x="5.6" y="5.6" width="20.8" height="20.8" rx="1.6" fill="#E8E4DC"/>
    <rect x="6.8" y="6.8" width="18.4" height="18.4" rx="1.1"/>
    <rect x="15.1" y="8.2" width="1.2" height="15.6" fill="#E8E4DC" opacity="0.9"/>
    <rect x="8.2" y="15.1" width="15.6" height="1.2" fill="#E8E4DC" opacity="0.9"/>
    <!-- seal script: 静 (quiet) — top-left -->
    <path
      fill="#E8E4DC"
      d="M9.2 9.4h5.2v1.1H11v2.1h3.1v1H9.2V9.4zm1.1 4.2h3v1.1h-3v-1.1z"
    />
    <!-- 灰 (ash) — bottom-right -->
    <path
      fill="#E8E4DC"
      d="M18.2 18.6h5.4v1.1h-2.1v1.9h2.1v1h-5.4v-3zm1.2 0h2.9v1h-2.9v-1zm0 1.9h2.9v1h-2.9v-1z"
    />
    <!-- accent strokes — top-right / bottom-left -->
    <rect x="18.4" y="9.6" width="4.8" height="1" fill="#E8E4DC" opacity="0.75" rx="0.2"/>
    <rect x="9.4" y="20.8" width="4.2" height="1" fill="#E8E4DC" opacity="0.75" rx="0.2"/>
  </g>
</svg>
